<svg width="40" height="40" viewBox="0 0 40 40" fill="none" xmlns="http://www.w3.org/2000/svg">
<path d="M26.6667 38.7834H25.3584V36.2208H14.6416V38.7834H13.3333C13.1041 38.7834 12.9166 38.9709 12.9166 39.2C12.9166 39.4333 13.1041 39.6167 13.3333 39.6167H26.6666C26.7213 39.6169 26.7756 39.6062 26.8262 39.5853C26.8769 39.5645 26.9229 39.5338 26.9616 39.4951C27.0003 39.4563 27.031 39.4103 27.0519 39.3597C27.0727 39.3091 27.0834 39.2548 27.0832 39.2C27.0834 38.9709 26.8958 38.7834 26.6667 38.7834ZM40 7.50011C40 6.35011 39.0667 5.41675 37.9166 5.41675H26.2666C26.2888 5.66065 26.2893 6.00081 26.2666 6.25011H37.9166C38.6041 6.25011 39.1666 6.81261 39.1666 7.50011V17.0667H20.4166V12.1002C20.1707 12.1225 19.8301 12.1227 19.5833 12.1002V17.0667H0.833359V7.50011C0.833359 6.81261 1.39586 6.25011 2.08336 6.25011H13.7334C13.7113 6.00722 13.7106 5.66604 13.7334 5.41675H2.08336C0.933281 5.41675 0 6.35003 0 7.50011V33.3042C0 34.4501 0.933281 35.3876 2.08336 35.3876H37.9167C39.0667 35.3876 40.0001 34.4501 40.0001 33.3042L40 7.50011ZM0.833359 28.7167V17.901H19.5834V28.7167H0.833359ZM20.4166 28.7167V17.901H39.1666V28.7167H20.4166ZM20 33.38C19.2672 33.38 18.671 32.7839 18.671 32.051C18.671 31.3184 19.2671 30.7223 20 30.7223C20.7328 30.7223 21.329 31.3184 21.329 32.051C21.329 32.7839 20.7328 33.38 20 33.38Z" fill="white"/>
<path d="M10.2083 12.95C11.6208 12.95 12.7709 11.7959 12.7709 10.3791C12.7709 8.96253 11.6209 7.81245 10.2083 7.81245C8.7957 7.81245 7.64156 8.96245 7.64156 10.3791C7.64172 11.7959 8.79586 12.95 10.2083 12.95ZM10.2083 13.7834C9.42914 13.7834 8.70828 13.5167 8.13336 13.075C6.68336 13.4625 5.57922 14.7084 5.40836 16.2333H15.0084C14.8375 14.7084 13.7334 13.4625 12.2834 13.0709C11.7084 13.5167 10.9875 13.7834 10.2083 13.7834ZM29.7917 12.95C31.2042 12.95 32.3543 11.7959 32.3543 10.3791C32.3543 8.96253 31.2043 7.81245 29.7917 7.81245C28.3791 7.81245 27.225 8.96245 27.225 10.3791C27.225 11.7959 28.3791 12.95 29.7917 12.95ZM24.9917 16.2333H34.5917C34.4209 14.7084 33.3167 13.4625 31.8667 13.0709C31.2917 13.5167 30.5709 13.7835 29.7917 13.7835C29.0126 13.7835 28.2917 13.5167 27.7168 13.0751C26.2666 13.4626 25.1625 14.7084 24.9917 16.2333ZM10.2083 24.6C11.6208 24.6 12.7709 23.4459 12.7709 22.0292C12.7709 20.6125 11.6209 19.4625 10.2083 19.4625C8.7957 19.4625 7.64156 20.6125 7.64156 22.0292C7.64164 23.4459 8.79586 24.6 10.2083 24.6ZM12.2834 24.7209C11.7084 25.1667 10.9875 25.4334 10.2084 25.4334C9.42922 25.4334 8.70836 25.1667 8.13343 24.725C6.68343 25.1125 5.57929 26.3583 5.40843 27.8832H15.0084C14.8375 26.3584 13.7334 25.1125 12.2834 24.7209ZM29.7917 24.6C31.2042 24.6 32.3543 23.4459 32.3543 22.0292C32.3543 20.6125 31.2043 19.4625 29.7917 19.4625C28.3791 19.4625 27.225 20.6125 27.225 22.0292C27.225 23.4459 28.3791 24.6 29.7917 24.6ZM31.8667 24.7209C31.2917 25.1667 30.5709 25.4334 29.7917 25.4334C29.0126 25.4334 28.2917 25.1667 27.7168 24.725C26.2668 25.1125 25.1627 26.3583 24.9918 27.8832H34.5918C34.4208 26.3584 33.3166 25.1125 31.8667 24.7209ZM20 31.5557C19.7268 31.5557 19.5044 31.7778 19.5044 32.051C19.5044 32.3242 19.7268 32.5467 20 32.5467C20.2732 32.5467 20.4956 32.3242 20.4956 32.051C20.4956 31.7778 20.2732 31.5557 20 31.5557ZM22.488 5.40308L21.8553 5.83276L22.488 6.26245V5.40308Z" fill="white"/>
<path d="M20 11.2834C23.0042 11.2834 25.45 8.83744 25.45 5.83338C25.45 2.82932 23.0042 0.383301 20 0.383301C16.9959 0.383301 14.5501 2.82924 14.5501 5.83338C14.5501 8.83752 16.9959 11.2834 20 11.2834ZM16.6786 5.14916C16.6786 4.54385 17.1712 4.0515 17.7764 4.0515H20.4322C21.0045 4.0515 21.4705 4.49314 21.5202 5.05268L22.2244 4.57455C22.6923 4.25713 23.3212 4.59447 23.3212 5.15557V6.50994C23.3212 7.07291 22.6907 7.40721 22.2244 7.0908L21.5202 6.61268C21.4705 7.17229 21.0045 7.61408 20.4322 7.61408H17.7764C17.1711 7.61408 16.6786 7.12174 16.6786 6.5165V5.14916Z" fill="white"/>
<path d="M17.7765 6.78078H20.4323C20.5024 6.78072 20.5696 6.75286 20.6192 6.70332C20.6688 6.65377 20.6967 6.58658 20.6968 6.51648V5.14906C20.6967 5.07896 20.6688 5.01178 20.6192 4.96223C20.5696 4.91269 20.5024 4.88483 20.4323 4.88477H17.7765C17.7064 4.88483 17.6392 4.91269 17.5896 4.96223C17.54 5.01178 17.5121 5.07896 17.512 5.14906V6.51641C17.5121 6.58651 17.54 6.65371 17.5896 6.70327C17.6392 6.75282 17.7064 6.7807 17.7765 6.78078Z" fill="white"/>
</svg>
