<svg width="38" height="36" viewBox="0 0 38 36" fill="none" xmlns="http://www.w3.org/2000/svg">
<path fill-rule="evenodd" clip-rule="evenodd" d="M31.4981 3.26452H29.1974V8.05943C29.1974 8.20504 29.1396 8.34468 29.0366 8.44764C28.9336 8.5506 28.794 8.60845 28.6484 8.60845H26.5986C26.5073 8.4458 26.394 8.29648 26.262 8.16468L25.6083 7.51041H28.0994V2.7155C28.0994 2.5699 28.1572 2.43025 28.2602 2.32729C28.3631 2.22433 28.5028 2.16648 28.6484 2.16648H31.4981C31.7351 1.36327 32.4787 0.776367 33.3583 0.776367C34.4285 0.776367 35.2974 1.64523 35.2974 2.7155C35.2974 3.7857 34.4285 4.65464 33.3583 4.65464C32.4787 4.65464 31.7351 4.06774 31.4981 3.26452ZM34.0242 10.907H32.2569V13.0292C32.2569 13.1748 32.1991 13.3145 32.0961 13.4174C31.9932 13.5204 31.8535 13.5783 31.7079 13.5783H25.9733C25.7709 13.2503 25.6591 12.8682 25.658 12.4802H31.1589V10.3579C31.1589 10.2123 31.2167 10.0727 31.3197 9.96972C31.4227 9.86676 31.5623 9.80892 31.7079 9.80892H34.0242C34.2613 9.0057 35.0048 8.4188 35.8844 8.4188C36.9547 8.4188 37.8235 9.28766 37.8235 10.3579C37.8235 11.4281 36.9547 12.297 35.8844 12.297C35.0048 12.297 34.2613 11.7101 34.0242 10.907ZM32.0851 18.5498H29.7464V17.4517H32.0851C32.3221 16.6485 33.0657 16.0616 33.9453 16.0616C35.0155 16.0616 35.8844 16.9305 35.8844 18.0008C35.8844 19.071 35.0155 19.9399 33.9453 19.9399C33.0657 19.9399 32.3221 19.353 32.0851 18.5498ZM34.0242 26.1909H31.7079C31.5623 26.1909 31.4227 26.133 31.3197 26.0301C31.2167 25.9271 31.1589 25.7875 31.1589 25.6419V23.5196H25.658C25.6591 23.1316 25.7709 22.7495 25.9733 22.4215H31.7079C31.8535 22.4215 31.9932 22.4794 32.0961 22.5824C32.1991 22.6853 32.2569 22.825 32.2569 22.9706V25.0928H34.0242C34.2613 24.2897 35.0048 23.7028 35.8844 23.7028C36.9547 23.7028 37.8235 24.5717 37.8235 25.6419C37.8235 26.7121 36.9547 27.581 35.8844 27.581C35.0048 27.581 34.2613 26.9941 34.0242 26.1909ZM31.4981 33.8333H28.6484C28.5028 33.8333 28.3631 33.7755 28.2602 33.6725C28.1572 33.5695 28.0994 33.4299 28.0994 33.2843V28.4894H25.6094L26.262 27.8368C26.3944 27.7046 26.5079 27.5547 26.5993 27.3914H28.6484C28.794 27.3914 28.9336 27.4492 29.0366 27.5522C29.1396 27.6551 29.1974 27.7948 29.1974 27.9404V32.7353H31.4981C31.7351 31.9321 32.4787 31.3452 33.3583 31.3452C34.4285 31.3452 35.2974 32.2141 35.2974 33.2843C35.2974 34.3546 34.4285 35.2234 33.3583 35.2234C32.4787 35.2234 31.7351 34.6365 31.4981 33.8333ZM27.7135 20.3581C24.9105 20.3581 23.5031 23.7546 25.4856 25.7371C25.8505 26.1019 25.8505 26.6955 25.4856 27.0604L23.4729 29.0731C23.108 29.4379 22.5145 29.4379 22.1496 29.0731C20.1672 27.0906 16.7707 28.498 16.7707 31.301C16.7707 31.8189 16.352 32.2359 15.8358 32.2359H12.9891C12.8663 32.236 12.7447 32.2119 12.6312 32.165C12.5177 32.118 12.4146 32.0492 12.3277 31.9624C12.2409 31.8755 12.172 31.7724 12.1251 31.6589C12.0782 31.5454 12.0541 31.4238 12.0542 31.301C12.0542 28.4946 8.65937 27.0889 6.67529 29.0731C6.31035 29.4379 5.71851 29.4379 5.35364 29.0731L3.33929 27.0604C2.97443 26.6955 2.97443 26.1019 3.33929 25.7371C5.32172 23.7546 3.916 20.3581 1.11137 20.3581C0.595135 20.3581 0.176468 19.9394 0.176468 19.4233V16.5765C0.176468 16.0604 0.595135 15.6417 1.11137 15.6417C3.916 15.6417 5.32172 12.2452 3.33929 10.2627C2.97443 9.89786 2.97443 9.30602 3.33929 8.94107L5.35364 6.92672C5.71851 6.56186 6.31035 6.56186 6.67529 6.92672C8.65764 8.90915 12.0542 7.50351 12.0542 4.6988C12.0542 4.18264 12.4729 3.7639 12.9891 3.7639H15.8358C16.352 3.7639 16.7707 4.18264 16.7707 4.6988C16.7707 7.50351 20.1672 8.90915 22.1496 6.92672C22.5145 6.56186 23.108 6.56186 23.4729 6.92672L25.4856 8.94107C25.8505 9.30602 25.8505 9.89786 25.4856 10.2627C23.5031 12.2452 24.9105 15.6417 27.7135 15.6417C28.2314 15.6417 28.6484 16.0604 28.6484 16.5765V19.4233C28.6485 19.5461 28.6244 19.6677 28.5775 19.7812C28.5305 19.8946 28.4616 19.9977 28.3748 20.0846C28.288 20.1714 28.1849 20.2403 28.0714 20.2872C27.9579 20.3341 27.8363 20.3582 27.7135 20.3581ZM14.4133 26.8784C19.3016 26.8784 23.2909 22.8892 23.2909 18.0008C23.2909 13.1102 19.3016 9.12304 14.4133 9.12304C9.52266 9.12304 5.53561 13.1102 5.53561 18.0008C5.53561 22.8892 9.52266 26.8784 14.4133 26.8784ZM14.4133 25.7804C10.1276 25.7804 6.63364 22.2845 6.63364 18.0008C6.63364 13.715 10.1276 10.2211 14.4133 10.2211C18.697 10.2211 22.1929 13.715 22.1929 18.0008C22.1929 22.2845 18.697 25.7804 14.4133 25.7804ZM18.8867 13.0292C18.8867 12.8836 18.8289 12.744 18.7259 12.641C18.623 12.5381 18.4833 12.4802 18.3377 12.4802H12.1034C11.9578 12.4802 11.8181 12.5381 11.7151 12.641L10.0989 14.2573C10.0479 14.3083 10.0075 14.3688 9.97989 14.4354C9.9523 14.502 9.93811 14.5734 9.93812 14.6455V22.9706C9.93812 23.1162 9.99596 23.2558 10.0989 23.3588C10.2019 23.4617 10.3415 23.5196 10.4871 23.5196H18.3377C18.4833 23.5196 18.623 23.4617 18.7259 23.3588C18.8289 23.2558 18.8867 23.1162 18.8867 22.9706V13.0292ZM17.7887 13.5783V22.4215H11.0362V14.8729L12.3308 13.5783H17.7887ZM12.6784 16.1683H16.1465C16.4495 16.1683 16.6955 15.9223 16.6955 15.6193C16.6955 15.3163 16.4495 15.0703 16.1465 15.0703H12.6784C12.3754 15.0703 12.1293 15.3163 12.1293 15.6193C12.1293 15.9223 12.3754 16.1683 12.6784 16.1683ZM12.6784 20.9295H16.1465C16.4495 20.9295 16.6955 20.6835 16.6955 20.3805C16.6955 20.0775 16.4495 19.8315 16.1465 19.8315H12.6784C12.3754 19.8315 12.1293 20.0775 12.1293 20.3805C12.1293 20.6835 12.3754 20.9295 12.6784 20.9295ZM12.6784 18.5489H16.1465C16.4495 18.5489 16.6955 18.3029 16.6955 17.9999C16.6955 17.6969 16.4495 17.4509 16.1465 17.4509H12.6784C12.3754 17.4509 12.1293 17.6969 12.1293 17.9999C12.1293 18.3029 12.3754 18.5489 12.6784 18.5489Z" fill="white"/>
</svg>
