<svg width="36" height="36" viewBox="0 0 36 36" fill="none" xmlns="http://www.w3.org/2000/svg">
<path d="M12.7294 26.7513H23.27V31.605H12.7294V26.7513ZM34.1831 0.581299H1.81687C1.46783 0.581629 1.13316 0.720392 0.88629 0.967147C0.639417 1.2139 0.500496 1.5485 0.5 1.89755V20.2H35.5V1.89755C35.4995 1.5485 35.3606 1.2139 35.1137 0.967147C34.8668 0.720392 34.5322 0.581629 34.1831 0.581299ZM31.8275 15.32C31.8915 15.401 31.9344 15.4965 31.9524 15.5981C31.9705 15.6996 31.9631 15.8041 31.931 15.9021C31.8989 16.0001 31.843 16.0887 31.7684 16.1599C31.6937 16.2311 31.6026 16.2826 31.5031 16.31L20.0144 19.4725C19.8372 19.5213 19.6543 19.5459 19.4706 19.5457C19.1165 19.546 18.7682 19.4552 18.4594 19.2819L17.69 18.8444L4.93187 11.6738C4.65991 11.5214 4.43361 11.2991 4.27637 11.0298C4.11913 10.7606 4.03667 10.4543 4.0375 10.1425V8.06255C4.03601 7.5942 4.18273 7.13738 4.45665 6.75748C4.73057 6.37758 5.11766 6.09408 5.5625 5.94755L15.6106 2.61942C16.036 2.47493 16.5012 2.50367 16.9056 2.69942L31.6006 9.87505C31.6279 9.88768 31.6542 9.9023 31.6794 9.9188C31.7012 9.93301 31.7221 9.94867 31.7419 9.96567C31.8375 10.0462 31.9064 10.1539 31.9394 10.2744C31.9521 10.3188 31.9594 10.3645 31.9613 10.4107C31.9686 10.5457 31.9315 10.6794 31.8556 10.7913L31.8431 10.8094L31.7456 10.9444C31.29 11.5628 31.0454 12.3113 31.0481 13.0794C31.0495 13.8925 31.324 14.6816 31.8275 15.32Z" fill="white"/>
<path d="M29.575 10.2752L16.3644 3.82579C16.2996 3.79545 16.229 3.77966 16.1575 3.77954C16.1074 3.7796 16.0576 3.78761 16.01 3.80329L5.95438 7.13392C5.75939 7.19846 5.58984 7.32309 5.47004 7.48994C5.35024 7.65678 5.28634 7.85727 5.28751 8.06267V10.1445C5.28612 10.2332 5.3086 10.3206 5.35258 10.3975C5.39657 10.4745 5.46044 10.5382 5.53751 10.582L17.375 17.2345V15.3158C17.3757 14.8277 17.5367 14.3533 17.8332 13.9655C18.1297 13.5778 18.5454 13.2981 19.0163 13.1695L29.575 10.2752ZM11.4819 6.95829L16.3569 5.19204C16.5128 5.1356 16.6847 5.1434 16.8349 5.21373C16.985 5.28405 17.1011 5.41114 17.1575 5.56704C17.2139 5.72294 17.2061 5.89487 17.1358 6.04502C17.0655 6.19516 16.9384 6.31122 16.7825 6.36767L11.9075 8.13392C11.8391 8.15831 11.767 8.17078 11.6944 8.17079C11.5474 8.17077 11.4051 8.11894 11.2926 8.02443C11.18 7.92991 11.1044 7.79875 11.0789 7.65399C11.0535 7.50923 11.0799 7.36014 11.1534 7.2329C11.227 7.10567 11.3437 7.00844 11.4819 6.95829ZM16.3606 13.5295C16.3078 13.631 16.2281 13.716 16.1302 13.7753C16.0323 13.8346 15.9201 13.8659 15.8056 13.8658C15.7054 13.8659 15.6067 13.8415 15.5181 13.7945L7.05188 9.38954C6.97774 9.35244 6.91172 9.30096 6.85767 9.2381C6.80362 9.17523 6.76261 9.10224 6.73704 9.02338C6.71147 8.94452 6.70185 8.86135 6.70873 8.77873C6.71561 8.69611 6.73886 8.61569 6.77713 8.54214C6.81539 8.4686 6.86791 8.4034 6.93162 8.35034C6.99533 8.29729 7.06895 8.25744 7.14821 8.23312C7.22747 8.2088 7.31077 8.20048 7.39327 8.20867C7.47577 8.21685 7.55582 8.24137 7.62876 8.28079L16.095 12.6877C16.2417 12.7642 16.3521 12.8959 16.4019 13.0537C16.4517 13.2115 16.4368 13.3826 16.3606 13.5295ZM14.9269 9.52329C14.7711 9.57958 14.5993 9.5717 14.4493 9.50138C14.2992 9.43107 14.1833 9.30406 14.1269 9.14829C14.0989 9.0711 14.0864 8.98915 14.0901 8.90714C14.0939 8.82512 14.1137 8.74464 14.1485 8.67029C14.1833 8.59594 14.2325 8.52918 14.2931 8.47382C14.3537 8.41846 14.4247 8.3756 14.5019 8.34767L19.3769 6.58079C19.5328 6.52427 19.7047 6.53199 19.8549 6.60226C20.0052 6.67252 20.1213 6.79958 20.1778 6.95548C20.2343 7.11138 20.2266 7.28334 20.1564 7.43355C20.0861 7.58375 19.959 7.69989 19.8031 7.75642L14.9269 9.52329Z" fill="white"/>
<path d="M21.8225 16.3206C21.7686 16.3359 21.7129 16.3437 21.6569 16.3438C21.5057 16.3436 21.3597 16.2887 21.2459 16.1891C21.1321 16.0896 21.0583 15.9522 21.0381 15.8023C21.0178 15.6525 21.0526 15.5004 21.1359 15.3743C21.2193 15.2481 21.3455 15.1565 21.4912 15.1163L29.8069 12.8319C29.8289 12.3543 29.9213 11.8825 30.0813 11.4319L19.3425 14.375C19.1365 14.4317 18.9548 14.5545 18.8252 14.7244C18.6956 14.8943 18.6253 15.102 18.625 15.3156V17.9406L19.0769 18.1963C19.2625 18.2996 19.4813 18.3261 19.6863 18.27L30.3544 15.3325C30.1543 14.9432 30.0072 14.5289 29.9169 14.1006L21.8225 16.3206ZM0.5 24.1875C0.501487 24.5359 0.640845 24.8695 0.88761 25.1155C1.13438 25.3614 1.46848 25.4997 1.81687 25.5H34.1831C34.5315 25.4997 34.8656 25.3614 35.1124 25.1155C35.3592 24.8695 35.4985 24.5359 35.5 24.1875V21.45H0.5V24.1875ZM10.1063 23.1463C10.1366 23.0719 10.1811 23.0041 10.2375 22.9469C10.3258 22.8609 10.437 22.8021 10.5578 22.7776C10.6786 22.7531 10.8039 22.7639 10.9187 22.8088C10.9967 22.8394 11.067 22.8865 11.125 22.9469C11.1814 23.0041 11.2259 23.0719 11.2562 23.1463C11.2883 23.2214 11.3053 23.3021 11.3063 23.3838C11.3049 23.486 11.2789 23.5864 11.2303 23.6764C11.1817 23.7663 11.112 23.8432 11.0273 23.9004C10.9425 23.9576 10.8451 23.9934 10.7435 24.0047C10.6419 24.0161 10.5391 24.0027 10.4438 23.9656C10.3676 23.9317 10.2979 23.885 10.2375 23.8275C10.1222 23.7085 10.0572 23.5495 10.0563 23.3838C10.0568 23.301 10.0738 23.2192 10.1063 23.1431V23.1463ZM6.35625 23.1463C6.38656 23.0719 6.43115 23.0041 6.4875 22.9469C6.60696 22.8326 6.76592 22.7688 6.93125 22.7688C7.09658 22.7688 7.25554 22.8326 7.375 22.9469C7.43135 23.0041 7.47594 23.0719 7.50625 23.1463C7.53828 23.2214 7.55526 23.3021 7.55625 23.3838C7.55492 23.486 7.52885 23.5864 7.48027 23.6764C7.43168 23.7663 7.36203 23.8432 7.27726 23.9004C7.1925 23.9576 7.09514 23.9934 6.99353 24.0047C6.89191 24.0161 6.78905 24.0027 6.69375 23.9656C6.61764 23.9317 6.54789 23.885 6.4875 23.8275C6.42918 23.7694 6.38309 23.7002 6.35196 23.624C6.32083 23.5478 6.30529 23.4661 6.30625 23.3838C6.30683 23.301 6.32382 23.2192 6.35625 23.1431V23.1463ZM2.60625 23.1463C2.63656 23.0719 2.68115 23.0041 2.7375 22.9469C2.7956 22.8883 2.86473 22.8418 2.94089 22.8101C3.01705 22.7783 3.09874 22.762 3.18125 22.762C3.26376 22.762 3.34545 22.7783 3.42161 22.8101C3.49777 22.8418 3.5669 22.8883 3.625 22.9469C3.68135 23.0041 3.72594 23.0719 3.75625 23.1463C3.79122 23.2204 3.80834 23.3018 3.80625 23.3838C3.80625 23.5495 3.7404 23.7085 3.62319 23.8257C3.50598 23.9429 3.34701 24.0088 3.18125 24.0088C3.01549 24.0088 2.85652 23.9429 2.73931 23.8257C2.6221 23.7085 2.55625 23.5495 2.55625 23.3838C2.55683 23.301 2.57382 23.2192 2.60625 23.1431V23.1463ZM25.1781 32.855H10.8219C10.6503 32.8496 10.4793 32.8788 10.3192 32.9408C10.159 33.0028 10.013 33.0963 9.88969 33.2158C9.7664 33.3353 9.66836 33.4784 9.60142 33.6365C9.53447 33.7946 9.49998 33.9646 9.49998 34.1363C9.49998 34.308 9.53447 34.4779 9.60142 34.636C9.66836 34.7942 9.7664 34.9372 9.88969 35.0567C10.013 35.1762 10.159 35.2697 10.3192 35.3317C10.4793 35.3937 10.6503 35.4229 10.8219 35.4175H25.1781C25.3497 35.4229 25.5207 35.3937 25.6808 35.3317C25.841 35.2697 25.987 35.1762 26.1103 35.0567C26.2336 34.9372 26.3316 34.7942 26.3986 34.636C26.4655 34.4779 26.5 34.308 26.5 34.1363C26.5 33.9646 26.4655 33.7946 26.3986 33.6365C26.3316 33.4784 26.2336 33.3353 26.1103 33.2158C25.987 33.0963 25.841 33.0028 25.6808 32.9408C25.5207 32.8788 25.3497 32.8496 25.1781 32.855Z" fill="white"/>
</svg>
