<svg width="40" height="40" viewBox="0 0 40 40" fill="none" xmlns="http://www.w3.org/2000/svg">
<path fill-rule="evenodd" clip-rule="evenodd" d="M20 0.773438C20.5641 0.773438 21.0255 1.23484 21.0255 1.79883H26.5835L25.4162 3.87891L26.5834 5.95898H21.0254V7.65289H18.9745V1.79883C18.9746 1.23492 19.436 0.773438 20 0.773438ZM30.957 22.2794V39.2266H38.6328C38.977 39.2266 39.2578 38.9458 39.2578 38.6016V22.9044C39.2578 22.5602 38.977 22.2794 38.6328 22.2794H30.957ZM33.9198 26.1264H36.2948C36.3735 26.1266 36.4489 26.1579 36.5045 26.2136C36.5601 26.2692 36.5915 26.3445 36.5917 26.4232V28.7982C36.5915 28.8769 36.5602 28.9523 36.5045 29.0079C36.4489 29.0636 36.3735 29.0949 36.2948 29.0952H33.9198C33.7566 29.0952 33.623 28.9615 33.623 28.7982V26.4232C33.6232 26.3446 33.6546 26.2692 33.7102 26.2136C33.7658 26.158 33.8412 26.1266 33.9198 26.1264ZM33.9198 32.4105H36.2948C36.4582 32.4105 36.5917 32.5442 36.5917 32.7075V35.0825C36.5915 35.1612 36.5601 35.2365 36.5045 35.2921C36.4489 35.3478 36.3735 35.3791 36.2948 35.3793H33.9198C33.8412 35.3791 33.7658 35.3478 33.7102 35.2921C33.6545 35.2365 33.6232 35.1612 33.623 35.0825V32.7075C33.6232 32.6288 33.6546 32.5535 33.7102 32.4978C33.7658 32.4422 33.8412 32.4108 33.9198 32.4105ZM9.04297 39.2266V22.2794H1.36719C1.02297 22.2794 0.742188 22.5602 0.742188 22.9044V38.6016C0.742188 38.9458 1.02297 39.2266 1.36719 39.2266H9.04297ZM3.70508 26.1264H6.08008C6.15874 26.1266 6.23412 26.1579 6.28974 26.2136C6.34537 26.2692 6.37673 26.3445 6.37695 26.4232V28.7982C6.37695 28.9615 6.24336 29.0952 6.08008 29.0952H3.70508C3.6264 29.0949 3.55101 29.0636 3.49538 29.0079C3.43975 28.9523 3.40841 28.8769 3.4082 28.7982V26.4232C3.40843 26.3445 3.43978 26.2692 3.49541 26.2136C3.55104 26.1579 3.62642 26.1266 3.70508 26.1264ZM3.70508 32.4105H6.08008C6.24336 32.4105 6.37695 32.5442 6.37695 32.7075V35.0825C6.37673 35.1612 6.34537 35.2365 6.28974 35.2921C6.23412 35.3478 6.15874 35.3791 6.08008 35.3793H3.70508C3.62642 35.3791 3.55104 35.3478 3.49541 35.2921C3.43978 35.2365 3.40843 35.1612 3.4082 35.0825V32.7075C3.40841 32.6288 3.43975 32.5534 3.49538 32.4978C3.55101 32.4421 3.6264 32.4108 3.70508 32.4105ZM10.0262 8.98102H29.9738C30.6763 8.98102 31.251 9.55578 31.251 10.2584C31.251 10.9609 30.6763 11.5357 29.9738 11.5357H10.0262C9.32367 11.5357 8.74891 10.9609 8.74891 10.2584C8.74891 9.55578 9.32375 8.98102 10.0262 8.98102ZM29.6289 12.8638V39.2263H25.4785V30.7529C25.4785 30.3862 25.1812 30.0888 24.8145 30.0888H15.1855C15.0094 30.0888 14.8405 30.1588 14.716 30.2833C14.5914 30.4079 14.5214 30.5768 14.5214 30.7529V39.2264H10.3711V12.8638H29.6289ZM24.1504 39.2264V31.417H15.8496V39.2264H24.1504ZM13.2174 15.9297C13.0541 15.9297 12.9205 16.0634 12.9205 16.2266V18.6016C12.9208 18.6803 12.9521 18.7557 13.0078 18.8113C13.0634 18.8669 13.1388 18.8982 13.2174 18.8984H15.5924C15.6711 18.8982 15.7465 18.8669 15.8021 18.8113C15.8577 18.7557 15.8891 18.6803 15.8893 18.6016V16.2266C15.8891 16.148 15.8577 16.0726 15.8021 16.0169C15.7465 15.9613 15.6711 15.9299 15.5924 15.9297H13.2174ZM13.2174 22.2141C13.1388 22.2143 13.0634 22.2456 13.0078 22.3012C12.9521 22.3568 12.9208 22.4322 12.9205 22.5109V24.8859C12.9205 25.0491 13.0541 25.1828 13.2174 25.1828H15.5924C15.7558 25.1828 15.8893 25.0491 15.8893 24.8859V22.5109C15.8891 22.4322 15.8577 22.3568 15.8021 22.3012C15.7465 22.2456 15.6711 22.2143 15.5924 22.2141H13.2174ZM18.8124 15.9297C18.7338 15.93 18.6584 15.9613 18.6028 16.017C18.5471 16.0726 18.5158 16.148 18.5155 16.2266V18.6016C18.5158 18.6803 18.5472 18.7557 18.6028 18.8113C18.6584 18.8669 18.7338 18.8982 18.8124 18.8984H21.1875C21.2661 18.8982 21.3415 18.8669 21.3971 18.8113C21.4527 18.7556 21.4841 18.6803 21.4843 18.6016V16.2266C21.4841 16.148 21.4528 16.0726 21.3972 16.0169C21.3415 15.9613 21.2662 15.9299 21.1875 15.9297H18.8124ZM18.8124 22.2141C18.7338 22.2143 18.6584 22.2456 18.6028 22.3012C18.5472 22.3568 18.5158 22.4322 18.5155 22.5109V24.8859C18.5158 24.9645 18.5471 25.0399 18.6028 25.0955C18.6584 25.1512 18.7338 25.1825 18.8124 25.1828H21.1875C21.2662 25.1826 21.3415 25.1512 21.3972 25.0956C21.4528 25.0399 21.4841 24.9645 21.4843 24.8859V22.5109C21.4841 22.4322 21.4527 22.3569 21.3971 22.3012C21.3415 22.2456 21.2661 22.2143 21.1875 22.2141H18.8124ZM24.4076 15.9297C24.3289 15.9299 24.2535 15.9613 24.1979 16.0169C24.1423 16.0726 24.1109 16.148 24.1107 16.2266V18.6016C24.1109 18.6803 24.1423 18.7557 24.1979 18.8113C24.2535 18.8669 24.3289 18.8982 24.4076 18.8984H26.7826C26.8612 18.8982 26.9366 18.8669 26.9922 18.8113C27.0479 18.7557 27.0792 18.6803 27.0795 18.6016V16.2266C27.0795 16.0634 26.9459 15.9297 26.7826 15.9297H24.4076ZM24.4076 22.2141C24.3289 22.2143 24.2535 22.2456 24.1979 22.3012C24.1423 22.3568 24.1109 22.4322 24.1107 22.5109V24.8859C24.1109 24.9645 24.1423 25.0399 24.1979 25.0956C24.2535 25.1512 24.3289 25.1826 24.4076 25.1828H26.7826C26.9459 25.1828 27.0795 25.0491 27.0795 24.8859V22.5109C27.0792 22.4322 27.0479 22.3568 26.9922 22.3012C26.9366 22.2456 26.8612 22.2143 26.7826 22.2141H24.4076Z" fill="white"/>
</svg>
