<svg width="40" height="40" viewBox="0 0 40 40" fill="none" xmlns="http://www.w3.org/2000/svg">
<path d="M35 22.2321C35 23.81 33.7207 25.0893 32.1429 25.0893C30.565 25.0893 29.2857 23.81 29.2857 22.2321C29.2857 20.6543 30.565 19.375 32.1429 19.375C33.7207 19.375 35 20.6543 35 22.2321ZM10.7143 22.2321C10.7143 23.81 9.435 25.0893 7.85714 25.0893C6.27929 25.0893 5 23.81 5 22.2321C5 20.6543 6.27929 19.375 7.85714 19.375C9.435 19.375 10.7143 20.6543 10.7143 22.2321ZM22.8571 19.375C22.8571 20.9528 21.5779 22.2321 20 22.2321C18.4221 22.2321 17.1429 20.9528 17.1429 19.375C17.1429 17.7971 18.4221 16.5178 20 16.5178C21.5779 16.5178 22.8571 17.7971 22.8571 19.375ZM11.4485 38.6607C10.9738 38.0471 10.7157 37.2936 10.7143 36.5178V29.375C10.7175 28.6522 10.8426 27.9352 11.0844 27.2541C10.9616 27.2457 10.8398 27.2321 10.7143 27.2321H5C3.99703 27.2292 3.01693 27.5316 2.18991 28.0991C1.51594 28.5576 0.964152 29.1738 0.582502 29.8941C0.200852 30.6144 0.000891592 31.417 0 32.2321L0 35.0893C0.00126152 35.7717 0.197709 36.4396 0.566164 37.0141C0.934619 37.5885 1.4597 38.0456 2.07946 38.3314C2.32725 38.4486 2.5884 38.5352 2.85714 38.5893V30.8035H4.28571V38.6607H11.4485ZM12.1648 39.375C12.1571 39.3693 12.1509 39.362 12.1429 39.3565V39.375H12.1648ZM27.2709 27.027C26.8879 26.312 26.3386 25.6996 25.6693 25.2413C25.6029 25.1921 25.5332 25.1474 25.4607 25.1077C24.6768 24.6286 23.7759 24.375 22.8571 24.375H17.1429C14.3813 24.375 12.1429 26.6134 12.1429 29.375V36.5178C12.1429 37.7012 13.1023 38.6607 14.2857 38.6607H15V28.6607H16.4286V38.6607H23.5714V28.6607H25V38.6607H25.7143C26.8977 38.6607 27.8571 37.7012 27.8571 36.5178V29.375C27.8574 28.5561 27.656 27.7497 27.2709 27.027ZM37.8121 28.1006C36.9847 27.5323 36.0038 27.2294 35 27.2321H29.2857C29.1609 27.2321 29.0391 27.2457 28.9163 27.2541C29.1577 27.9353 29.2825 28.6523 29.2857 29.375V36.5178C29.2843 37.2936 29.0262 38.0471 28.5515 38.6607H35.7143V30.8035H37.1429V38.5893C37.4075 38.5362 37.6646 38.4508 37.9084 38.335C38.531 38.0508 39.0591 37.5939 39.4298 37.0186C39.8006 36.4433 39.9985 35.7737 40 35.0893V32.2321C39.9991 31.4174 39.7994 30.6152 39.4181 29.8952C39.0368 29.1752 38.4855 28.5592 37.8121 28.1006Z" fill="white"/>
<path d="M20 9.37503C18.5627 9.37222 17.1479 9.7316 15.8862 10.42C14.6245 11.1084 13.5565 12.1036 12.781 13.3136C12.0055 14.5237 11.5473 15.9097 11.4489 17.3437C11.3505 18.7776 11.6149 20.2132 12.2179 21.5179H16.2943C15.2479 19.7168 15.648 17.4247 17.2422 16.0844C18.8365 14.7444 21.1635 14.7444 22.7578 16.0844C24.352 17.4247 24.752 19.7168 23.7057 21.5179H27.7856C28.3887 20.2129 28.6532 18.7769 28.5547 17.3427C28.4561 15.9085 27.9977 14.5222 27.2217 13.312C26.4458 12.1018 25.3773 11.1066 24.1151 10.4185C22.8529 9.73042 21.4376 9.37153 20 9.37503Z" fill="white"/>
<path d="M37.1429 15.0894H33.2857L33.147 14.5529C32.8315 13.3256 32.3408 12.1502 31.6902 11.0627L31.4042 10.585L34.1427 7.8415C34.2088 7.77573 34.2612 7.69755 34.297 7.61145C34.3328 7.52535 34.3512 7.43304 34.3512 7.3398C34.3512 7.24657 34.3328 7.15425 34.297 7.06815C34.2612 6.98206 34.2088 6.90388 34.1427 6.83811L31.1095 3.80382C30.9747 3.67521 30.7956 3.60345 30.6093 3.60345C30.4231 3.60345 30.2439 3.67521 30.1092 3.80382L27.3657 6.54721L26.8879 6.2615C25.7991 5.6105 24.6222 5.11955 23.3936 4.80373L22.8571 4.66418V0.803641C22.8571 0.614201 22.7819 0.432519 22.6479 0.298565C22.514 0.16461 22.3323 0.0893555 22.1429 0.0893555H17.8571C17.6677 0.0893555 17.486 0.16461 17.3521 0.298565C17.2181 0.432519 17.1429 0.614201 17.1429 0.803641V4.66078L16.6064 4.79953C15.3791 5.11518 14.2035 5.60558 13.1156 6.2557L12.6378 6.54168L9.895 3.80382C9.76011 3.67425 9.58033 3.60189 9.3933 3.60189C9.20627 3.60189 9.02648 3.67425 8.8916 3.80382L5.85732 6.83703C5.79117 6.90289 5.73867 6.98116 5.70282 7.06734C5.66697 7.15352 5.64847 7.24593 5.64839 7.33927C5.64839 7.52802 5.72366 7.70864 5.85732 7.8415L8.60071 10.585L8.315 11.0627C7.66423 12.1501 7.17348 13.3256 6.85785 14.5529L6.71767 15.0894H2.85714C2.6677 15.0894 2.48602 15.1646 2.35206 15.2986C2.21811 15.4325 2.14285 15.6142 2.14285 15.8036V20.0894C2.14285 20.2788 2.21811 20.4605 2.35206 20.5944C2.48602 20.7284 2.6677 20.8036 2.85714 20.8036H3.82357C4.03302 20.2076 4.372 19.6655 4.81611 19.2162C5.26022 18.7669 5.79842 18.4216 6.39196 18.2052C6.98545 17.9887 7.61957 17.9065 8.24865 17.9646C8.87773 18.0226 9.48612 18.2194 10.03 18.5408C10.0185 18.343 10 18.147 10 17.9465C10 12.4237 14.4772 7.9465 20 7.9465C25.5228 7.9465 30 12.4237 30 17.9465C30 18.147 29.9815 18.343 29.97 18.5408C30.5139 18.2194 31.1223 18.0226 31.7513 17.9646C32.3804 17.9065 33.0145 17.9887 33.608 18.2052C34.2016 18.4216 34.7398 18.7669 35.1839 19.2162C35.628 19.6655 35.967 20.2076 36.1764 20.8036H37.1429C37.3323 20.8036 37.514 20.7284 37.6479 20.5944C37.7819 20.4605 37.8571 20.2788 37.8571 20.0894V15.8036C37.8571 15.6142 37.7819 15.4325 37.6479 15.2986C37.514 15.1646 37.3323 15.0894 37.1429 15.0894Z" fill="white"/>
</svg>
