<svg width="24" height="24" viewBox="0 0 24 24" fill="none" xmlns="http://www.w3.org/2000/svg">
<path d="M20.0142 16.0395L20.0146 16.0401C20.0424 16.0735 20.0801 16.1193 20.1191 16.1668C20.1631 16.2203 20.2088 16.2758 20.2436 16.3178C20.3837 16.4869 20.4723 16.6927 20.499 16.9107C20.5257 17.1287 20.4893 17.3497 20.3942 17.5477L20.3938 17.5485C20.1904 17.9736 19.7587 18.2486 19.2422 18.2486H4.76299C4.24182 18.2486 3.80743 17.9721 3.60548 17.5465L3.60479 17.5451C3.51009 17.3472 3.47407 17.1264 3.50098 16.9087C3.52789 16.691 3.61661 16.4855 3.75663 16.3167L3.75664 16.3167L3.75956 16.3131C3.82615 16.2312 3.89166 16.1523 3.95779 16.0725C3.96714 16.0612 3.9765 16.05 3.98588 16.0386L3.98599 16.0385L4.00201 16.0192C4.50926 15.4069 4.97109 14.8495 5.28567 13.9818C5.59972 13.1155 5.75611 11.9761 5.75611 10.1883C5.75611 8.65054 6.06402 7.42471 6.65448 6.46519C7.24215 5.51022 8.13395 4.77941 9.37364 4.26907L9.40081 4.25789L9.42649 4.24359C9.4899 4.20829 9.54691 4.16255 9.5951 4.10828L9.66862 4.02552L9.70032 3.91946C10.0557 2.73053 11.0011 2 12 2C12.9989 2 13.9447 2.73049 14.3001 3.92073L14.3305 4.02237L14.3995 4.10294C14.4489 4.16061 14.5082 4.20906 14.5746 4.24601L14.6003 4.26028L14.6274 4.27146C15.6922 4.70951 16.4745 5.29061 17.0479 6.04031L17.0481 6.04067C17.826 7.05587 18.2444 8.43929 18.2444 10.1897C18.2444 11.9769 18.401 13.1159 18.7152 13.9822C19.0294 14.8485 19.4903 15.4059 19.9961 16.0176L20.0142 16.0395ZM9.44041 20.75H14.5601C14.3144 21.0645 14.0118 21.3323 13.6666 21.5388C13.1629 21.8401 12.587 21.9994 12.0001 22C11.4132 21.9994 10.8374 21.84 10.3337 21.5387C9.98856 21.3322 9.6861 21.0644 9.44041 20.75ZM15.136 20.75C15.1359 20.75 15.1359 20.75 15.1358 20.75H15.136Z" stroke="black"/>
</svg>
